{"title":"Independence Day 1996 DVD9rip English Klam","uid":11869531,"size":1583972965,"categoryP":"video","categoryS":"movies","magnet":"?xt=urn:btih:5414eede7f71514332c374bb2b03665fe028cf89&amp;dn=Independence+Day+1996+DVD9rip+English+Klam&amp;tr=udp%3A%2F%2Ftracker.openbittorrent.com%3A80&amp;tr=udp%3A%2F%2Fopen.demonii.com%3A1337&amp;tr=udp%3A%2F%2Ftracker.coppersurfer.tk%3A6969&amp;tr=udp%3A%2F%2Fexodus.desync.com%3A6969","seeders":1,"leechers":3,"uploader":"Klambake","files":5,"time":1430401807,"description":" &lt;a href=&quot;http://i.imgur.com/4Q0rlpb.jpg&quot; rel=&quot;nofollow&quot; target=&quot;_NEW&quot;&gt;http://i.imgur.com/4Q0rlpb.jpg&lt;/a&gt;\n\nWith: Will Smith, Bill Pullman en Jeff Goldblum\n\nGigantische buitenaardse schepen komen richting de aarde, en hangen boven enkele grote steden. Nadat een poging tot communicatie met de aliens tot niets leidt, komt David Levison er achter dat de aliens in minder dan een dag aan zullen gaan vallen. Nadat de grote steden compleet verwoest zijn door de buitenaardse schepen besluiten de overlevenden terug te vechten met behulp van een buitenaards schip dat enkele decennia geleden op aarde is neergestort.\n\nThe aliens are coming and their goal is to invade and destroy. Fighting superior technology, Man's best weapon is the will to survive.\n &lt;a href=&quot;\nhttp://www.imdb.com/title/tt0116629&quot; rel=&quot;nofollow&quot; target=&quot;_NEW&quot;&gt;\nhttp://www.imdb.com/title/tt0116629&lt;/a&gt;\n\n[rechts][size=85][color=#ff0033]Gecontroleerd door ChefKe[/color][/size][/rechts]\n\n--------------------- Dutch Friends 4ever ---------------------\n---------------------------------------------------------------\n- Bezoek ook eens mijn vrienden op: &lt;a href=&quot; http://www.Film-Test.nl&quot; rel=&quot;nofollow&quot; target=&quot;_NEW&quot;&gt; http://www.Film-Test.nl&lt;/a&gt; --\n----- voor mijn Nederlandse Sync. ondertitels ---- en meer ----\n------- http://www.Film-Test.nl ---- Over Films en meer -------\n---------------------------------------------------------------\n &lt;a href=&quot;\nhttp://i.imgur.com/gnEyraB.jpg&quot; rel=&quot;nofollow&quot; target=&quot;_NEW&quot;&gt;\nhttp://i.imgur.com/gnEyraB.jpg&lt;/a&gt; &lt;a href=&quot;\nhttp://i.imgur.com/VFdTkwt.jpg&quot; rel=&quot;nofollow&quot; target=&quot;_NEW&quot;&gt;\nhttp://i.imgur.com/VFdTkwt.jpg&lt;/a&gt; &lt;a href=&quot;\nhttp://i.imgur.com/jLeYu7F.jpg&quot; rel=&quot;nofollow&quot; target=&quot;_NEW&quot;&gt;\nhttp://i.imgur.com/jLeYu7F.jpg&lt;/a&gt;\n\nGeneral:\n\nComplete name                            : Independence DayIndependence Day.avi\nFormat                                   : AVI\nFormat/Info                              : Audio Video Interleave\nFile size                                : 1.48 GiB\nDuration                                 : 2h 24mn\nOverall bit rate                         : 1 459 Kbps\n\nVideo:\n\nFormat                                   : MPEG-4 Visual\nFormat profile                           : Simple@L3\nFormat settings, BVOP                    : No\nFormat settings, QPel                    : No\nFormat settings, GMC                     : No warppoints\nFormat settings, Matrix                  : Default (H.263)\nCodec ID                                 : XVID\nCodec ID/Hint                            : XviD\nDuration                                 : 2h 24mn\nBit rate                                 : 1 000 Kbps\nWidth                                    : 720 pixels\nHeight                                   : 304 pixels\nDisplay aspect ratio                     : 2.35:1\nFrame rate                               : 25.000 fps\nColor space                              : YUV\nChroma subsampling                       : 4:2:0\nBit depth                                : 8 bits\nScan type                                : Progressive\nCompression mode                         : Lossy\nBits/(Pixel*Frame)                       : 0.183\nStream size                              : 1.01 GiB (69%)\nWriting library                          : XviD 1.1.2 (UTC 2006-11-01)\n\nAudio:\n\nFormat                                   : AC-3\nFormat/Info                              : Audio Coding 3\nMode extension                           : CM (complete main)\nFormat settings, Endianness              : Big\nCodec ID                                 : 2000\nDuration                                 : 2h 24mn\nSource duration                          : 2h 24mn\nBit rate mode                            : Constant\nBit rate                                 : 448 Kbps\nChannel(s)                               : 6 channels\nChannel positions                        : Front: L C R, Side: L R, LFE\nSampling rate                            : 48.0 KHz\nBit depth                                : 16 bits\nCompression mode                         : Lossy\nStream size                              : 464 MiB (31%)\nAlignment                                : Aligned on interleaves\nInterleave, duration                     : 32 ms (0.80 video frame)","torrent":{"xt":"urn:btih:5414eede7f71514332c374bb2b03665fe028cf89","amp;dn":"Independence+Day+1996+DVD9rip+English+Klam","amp;tr":["udp%3A%2F%2Ftracker.openbittorrent.com%3A80","udp%3A%2F%2Fopen.demonii.com%3A1337","udp%3A%2F%2Ftracker.coppersurfer.tk%3A6969","udp%3A%2F%2Fexodus.desync.com%3A6969"],"infoHash":"5414eede7f71514332c374bb2b03665fe028cf89","infoHashBuffer":{"type":"Buffer","data":[84,20,238,222,127,113,81,67,50,195,116,187,43,3,102,95,224,40,207,137]},"announce":[],"urlList":[]}}